<svg width="183" height="104" viewBox="0 0 183 104" fill="none" xmlns="http://www.w3.org/2000/svg">
<g clip-path="url(#clip0_181_2)">
<path d="M67.9397 26.9973V20.4056H70.8951C71.6566 20.4056 72.2366 20.5569 72.6451 20.8645C73.0537 21.1671 73.2554 21.5857 73.2554 22.1102C73.2554 22.4683 73.1747 22.7709 73.0133 23.013C72.8519 23.2551 72.6401 23.4468 72.3678 23.5779C72.0954 23.709 71.8079 23.7746 71.4902 23.7746L71.6617 23.4921C72.0399 23.4921 72.3728 23.5577 72.6603 23.6888C72.9478 23.82 73.1797 24.0116 73.3462 24.2688C73.5126 24.526 73.5983 24.8387 73.5983 25.217C73.5983 25.7818 73.3865 26.2206 72.9629 26.5283C72.5392 26.8359 71.9088 26.9923 71.0766 26.9923H67.9296L67.9397 26.9973ZM68.8828 26.2358H71.0464C71.5659 26.2358 71.9643 26.15 72.2417 25.9735C72.5191 25.797 72.6552 25.5196 72.6552 25.1464C72.6552 24.7732 72.5191 24.4857 72.2417 24.3092C71.9643 24.1327 71.5659 24.0469 71.0464 24.0469H68.797V23.2854H70.8093C71.2885 23.2854 71.6566 23.1996 71.9189 23.0231C72.1812 22.8466 72.3123 22.5843 72.3123 22.2313C72.3123 21.8783 72.1812 21.616 71.9189 21.4395C71.6566 21.263 71.2834 21.1772 70.8093 21.1772H68.8777V26.2408L68.8828 26.2358Z" fill="#FB5607"/>
<path d="M83.5389 26.9973V20.4056H84.482V26.9973H83.5389Z" fill="#FB5607"/>
<path d="M96.2382 26.9973V21.2276H93.9788V20.4106H99.4307V21.2276H97.1712V26.9973H96.2382V26.9973Z" fill="#FB5607"/>
<path d="M111.787 27.073C111.283 27.073 110.824 26.9872 110.4 26.8208C109.976 26.6544 109.608 26.4173 109.301 26.1147C108.988 25.8121 108.746 25.454 108.569 25.0455C108.393 24.637 108.307 24.1881 108.307 23.6989C108.307 23.2097 108.393 22.7609 108.569 22.3523C108.746 21.9438 108.988 21.5908 109.306 21.2831C109.618 20.9805 109.986 20.7435 110.41 20.5771C110.834 20.4106 111.298 20.3249 111.797 20.3249C112.296 20.3249 112.775 20.4106 113.204 20.5821C113.633 20.7536 114.001 21.0108 114.304 21.3487L113.693 21.9438C113.441 21.6816 113.159 21.4849 112.846 21.3537C112.533 21.2226 112.195 21.1621 111.837 21.1621C111.479 21.1621 111.121 21.2226 110.809 21.3487C110.491 21.4748 110.218 21.6513 109.986 21.8783C109.754 22.1052 109.573 22.3725 109.447 22.6852C109.316 22.9979 109.255 23.3358 109.255 23.6989C109.255 24.0621 109.321 24.4 109.447 24.7127C109.573 25.0253 109.754 25.2926 109.986 25.5196C110.218 25.7465 110.491 25.9231 110.809 26.0492C111.126 26.1752 111.469 26.2358 111.837 26.2358C112.206 26.2358 112.533 26.1702 112.846 26.0441C113.159 25.918 113.441 25.7163 113.693 25.449L114.304 26.0441C114.001 26.382 113.638 26.6392 113.204 26.8157C112.77 26.9923 112.301 27.078 111.787 27.078V27.073Z" fill="#FB5607"/>
<path d="M126.952 27.073C126.448 27.073 125.984 26.9872 125.555 26.8208C125.127 26.6544 124.754 26.4123 124.441 26.1097C124.128 25.8071 123.881 25.449 123.705 25.0405C123.528 24.632 123.442 24.1882 123.442 23.704C123.442 23.2198 123.528 22.776 123.705 22.3675C123.881 21.959 124.123 21.6059 124.441 21.2983C124.754 20.9957 125.127 20.7586 125.55 20.5872C125.979 20.4157 126.443 20.335 126.952 20.335C127.462 20.335 127.921 20.4207 128.344 20.5872C128.773 20.7536 129.141 20.9906 129.454 21.2932C129.767 21.5958 130.009 21.9539 130.185 22.3675C130.357 22.781 130.443 23.2249 130.443 23.709C130.443 24.1932 130.357 24.6471 130.185 25.0556C130.014 25.4641 129.767 25.8222 129.454 26.1248C129.141 26.4274 128.768 26.6645 128.344 26.8309C127.916 26.9973 127.452 27.0831 126.952 27.0831V27.073ZM126.942 26.2358C127.311 26.2358 127.654 26.1753 127.966 26.0492C128.279 25.9231 128.546 25.7466 128.778 25.5146C129.005 25.2876 129.187 25.0153 129.313 24.7076C129.444 24.4 129.504 24.0621 129.504 23.6989C129.504 23.3358 129.439 23.003 129.313 22.6953C129.182 22.3927 129.005 22.1204 128.778 21.8884C128.551 21.6564 128.279 21.4748 127.966 21.3538C127.654 21.2277 127.316 21.1672 126.942 21.1672C126.569 21.1672 126.241 21.2277 125.929 21.3538C125.616 21.4798 125.349 21.6564 125.117 21.8884C124.885 22.1204 124.703 22.3877 124.577 22.6953C124.446 22.9979 124.385 23.3358 124.385 23.6989C124.385 24.0621 124.451 24.4 124.577 24.7076C124.703 25.0153 124.885 25.2826 125.117 25.5146C125.349 25.7415 125.621 25.9231 125.929 26.0492C126.241 26.1753 126.579 26.2358 126.942 26.2358V26.2358Z" fill="#FB5607"/>
<path d="M140.363 26.9973V20.4056H141.306V26.9973H140.363Z" fill="#FB5607"/>
<path d="M151.751 26.9973V20.4056H152.523L156.88 25.8222H156.477V20.4056H157.42V26.9973H156.648L152.291 21.5807H152.694V26.9973H151.751Z" fill="#FB5607"/>
<path d="M75.3232 56.7282C74.0624 56.7282 72.8015 56.6828 71.5507 56.6072C70.3 56.5265 68.9988 56.3449 67.6472 56.0524L67.6825 33.7202C68.7466 33.5235 69.9116 33.3773 71.1725 33.2764C72.4333 33.1806 73.6085 33.1301 74.6978 33.1352C76.1604 33.1352 77.507 33.2461 78.7326 33.4579C79.9631 33.6698 81.0172 34.0329 81.9048 34.5423C82.7925 35.0517 83.4834 35.7224 83.9777 36.5546C84.477 37.3868 84.7241 38.4106 84.7191 39.6311C84.7191 41.4719 83.8264 42.9194 82.0511 43.9785C83.5137 44.5333 84.5072 45.2898 85.0368 46.243C85.5664 47.1962 85.8286 48.2704 85.8286 49.4657C85.8286 51.8815 84.941 53.6971 83.1758 54.9126C81.4106 56.128 78.7931 56.7333 75.3131 56.7282H75.3232ZM72.7158 46.3892L72.7057 52.3404C73.0839 52.3858 73.4925 52.4211 73.9363 52.4413C74.3801 52.4665 74.8693 52.4766 75.3989 52.4766C76.9522 52.4766 78.203 52.2598 79.1562 51.821C80.1094 51.3772 80.5885 50.5601 80.5885 49.3648C80.5885 48.3007 80.1951 47.5442 79.3932 47.0852C78.5964 46.6313 77.4566 46.3993 75.9738 46.3993H72.7158V46.3892ZM72.7208 42.4302H75.2476C76.8413 42.4352 77.9861 42.2335 78.672 41.825C79.3579 41.4164 79.7059 40.7558 79.7059 39.8479C79.7059 38.9149 79.3529 38.2643 78.6468 37.8861C77.9407 37.5078 76.8968 37.3162 75.5249 37.3162C75.0811 37.3162 74.607 37.3162 74.0977 37.3313C73.5883 37.3414 73.1344 37.3666 72.7359 37.412L72.7259 42.4302H72.7208Z" fill="#1A2DE2"/>
<path d="M88.8294 47.8468C88.8294 46.2934 89.0715 44.9367 89.5507 43.7767C90.0298 42.6168 90.6552 41.6484 91.4318 40.8717C92.2085 40.1001 93.1012 39.51 94.1099 39.1166C95.1186 38.7182 96.1525 38.5215 97.2166 38.5215C99.698 38.5215 101.655 39.2881 103.097 40.8062C104.535 42.3242 105.251 44.5585 105.246 47.5038C105.246 47.7913 105.236 48.109 105.21 48.452C105.185 48.7949 105.165 49.1026 105.145 49.3648L93.9132 49.3447C94.0242 50.3634 94.4982 51.1754 95.3354 51.7756C96.1777 52.3757 97.3074 52.6783 98.7246 52.6783C99.6324 52.6783 100.525 52.5977 101.403 52.4312C102.28 52.2648 102.991 52.063 103.546 51.821L104.202 55.8456C103.934 55.9767 103.581 56.1079 103.138 56.244C102.694 56.3802 102.2 56.4912 101.66 56.592C101.12 56.6929 100.535 56.7736 99.9148 56.8391C99.2945 56.9047 98.6742 56.935 98.0538 56.935C96.4803 56.935 95.1135 56.6979 93.9485 56.2289C92.7885 55.7599 91.8252 55.1244 91.0586 54.3124C90.2971 53.5004 89.7322 52.5422 89.3691 51.4377C89.006 50.3281 88.8244 49.1328 88.8294 47.8468ZM100.465 45.9706C100.444 45.552 100.374 45.1385 100.253 44.74C100.132 44.3416 99.9451 43.9886 99.6879 43.6759C99.4357 43.3632 99.1129 43.111 98.7246 42.9093C98.3363 42.7075 97.8571 42.6067 97.2771 42.6067C96.7224 42.6067 96.2483 42.6975 95.8499 42.8891C95.4514 43.0757 95.1186 43.3279 94.8513 43.6355C94.584 43.9482 94.3772 44.3063 94.236 44.7148C94.0897 45.1233 93.9838 45.5419 93.9182 45.9605L100.465 45.9706V45.9706Z" fill="#1A2DE2"/>
<path d="M115.368 38.5518C116.83 38.5518 118.046 38.7232 119.024 39.0561C119.998 39.389 120.779 39.8681 121.364 40.4884C121.949 41.1088 122.363 41.8653 122.605 42.7529C122.847 43.6405 122.968 44.624 122.968 45.7134L122.953 56.0171C122.242 56.1684 121.258 56.3499 119.993 56.5617C118.727 56.7685 117.199 56.8744 115.403 56.8694C114.273 56.8694 113.25 56.7685 112.332 56.5668C111.414 56.3651 110.622 56.0372 109.956 55.5833C109.291 55.1294 108.786 54.5343 108.433 53.803C108.08 53.0717 107.904 52.174 107.904 51.1098C107.904 50.0911 108.11 49.2286 108.524 48.5175C108.932 47.8114 109.482 47.2466 110.173 46.8229C110.859 46.4043 111.646 46.1017 112.533 45.9151C113.421 45.7285 114.339 45.6377 115.292 45.6377C115.933 45.6377 116.503 45.668 117.002 45.7235C117.501 45.779 117.905 45.8546 118.217 45.9403V45.4763C118.217 44.6341 117.965 43.9583 117.456 43.4489C116.946 42.9395 116.064 42.6823 114.798 42.6823C113.956 42.6823 113.123 42.7428 112.306 42.8588C111.489 42.9799 110.778 43.1513 110.178 43.3682L109.553 39.3789C109.84 39.2931 110.203 39.1973 110.632 39.0964C111.066 38.9956 111.535 38.9098 112.044 38.8342C112.554 38.7585 113.093 38.693 113.658 38.6375C114.223 38.582 114.793 38.5568 115.368 38.5568V38.5518ZM115.741 53.0415C116.23 53.0415 116.694 53.0314 117.138 53.0112C117.582 52.991 117.935 52.9557 118.202 52.9154V49.158C118.011 49.1126 117.708 49.0672 117.31 49.0219C116.911 48.9765 116.543 48.9563 116.21 48.9563C115.746 48.9563 115.307 48.9815 114.899 49.037C114.49 49.0925 114.127 49.1984 113.819 49.3497C113.507 49.506 113.265 49.7128 113.088 49.9801C112.912 50.2474 112.821 50.5803 112.821 50.9787C112.821 51.7554 113.078 52.29 113.598 52.5926C114.117 52.8901 114.833 53.0415 115.741 53.0465V53.0415Z" fill="#1A2DE2"/>
<path d="M126.62 47.7761C126.62 46.5153 126.826 45.3251 127.24 44.2054C127.654 43.0858 128.244 42.1124 129.025 41.2853C129.802 40.4531 130.745 39.7975 131.855 39.3133C132.964 38.8291 134.225 38.5871 135.642 38.5871C136.575 38.5871 137.428 38.6728 138.199 38.8392C138.976 39.0057 139.727 39.2478 140.459 39.5554L139.42 43.5094C138.956 43.3329 138.446 43.1766 137.892 43.0404C137.337 42.9042 136.717 42.8387 136.031 42.8387C134.568 42.8387 133.479 43.2875 132.757 44.1953C132.036 45.1031 131.673 46.2984 131.673 47.7812C131.673 49.3547 132.006 50.5752 132.682 51.4377C133.358 52.3051 134.533 52.7389 136.217 52.7389C136.817 52.7389 137.458 52.6834 138.144 52.5775C138.83 52.4665 139.46 52.29 140.04 52.0479L140.731 56.1028C140.156 56.3449 139.435 56.5517 138.567 56.7282C137.705 56.9047 136.752 56.9904 135.708 56.9904C134.114 56.9904 132.737 56.7484 131.587 56.2692C130.438 55.7901 129.489 55.1395 128.748 54.3225C128.007 53.5004 127.467 52.5321 127.124 51.4124C126.781 50.2928 126.615 49.0773 126.615 47.7711L126.62 47.7761Z" fill="#1A2DE2"/>
<path d="M144.05 56.5466L144.09 31.5566L149.043 30.7698L149.027 39.1469C149.36 39.0359 149.789 38.93 150.308 38.8342C150.828 38.7333 151.332 38.6879 151.822 38.6879C153.239 38.6879 154.419 38.8846 155.362 39.278C156.3 39.6664 157.057 40.2161 157.616 40.9272C158.181 41.6383 158.58 42.4806 158.807 43.454C159.039 44.4273 159.15 45.5167 159.15 46.712L159.134 56.5819L154.182 56.5719L154.197 47.297C154.197 45.7033 153.995 44.5736 153.587 43.9079C153.178 43.2421 152.422 42.9093 151.312 42.9093C150.868 42.9093 150.455 42.9446 150.066 43.0253C149.678 43.1009 149.33 43.1867 149.017 43.2724L148.992 56.5668L144.04 56.5567L144.05 56.5466Z" fill="#1A2DE2"/>
<path d="M82.4848 66.8352C82.7219 67.6573 82.9892 68.5852 83.2766 69.6191C83.5641 70.653 83.8718 71.7222 84.1996 72.8217C84.5274 73.9262 84.8603 75.0257 85.1982 76.1302C85.5361 77.2347 85.8639 78.2585 86.1867 79.2016C86.4489 78.1778 86.7213 77.0682 86.9936 75.8679C87.266 74.6676 87.5282 73.4219 87.7703 72.1408C88.0124 70.8598 88.2545 69.5838 88.4865 68.3079C88.7185 67.0369 88.9404 65.8063 89.1421 64.6262L94.014 64.6363C93.3029 68.1213 92.4859 71.6567 91.5629 75.2476C90.64 78.8334 89.6414 82.2428 88.5672 85.4655H84.2752C83.5792 83.5339 82.9034 81.5115 82.2427 79.3983C81.5871 77.2851 80.9415 75.1618 80.301 73.0386C79.6555 75.1618 79.0099 77.2801 78.3644 79.3933C77.7188 81.5064 77.043 83.5238 76.3369 85.4504H72.05C70.9859 82.2125 70.0024 78.8032 69.0946 75.2173C68.1868 71.6264 67.3798 68.0859 66.6838 64.601L71.7625 64.611C71.9592 65.7962 72.1811 67.0218 72.4232 68.2927C72.6603 69.5687 72.9124 70.8447 73.1697 72.1257C73.4319 73.4118 73.6942 74.6525 73.9615 75.8578C74.2288 77.0632 74.5062 78.1727 74.7886 79.1966C75.1517 78.2131 75.5047 77.1742 75.8477 76.0697C76.1907 74.9702 76.5235 73.8657 76.8463 72.7662C77.1691 71.6668 77.4666 70.6026 77.739 69.5788C78.0113 68.555 78.2584 67.6472 78.4804 66.8453H82.4798L82.4848 66.8352Z" fill="#1A2DE2"/>
<path d="M101.524 69.2459C102.845 69.2459 103.95 69.4023 104.832 69.7049C105.715 70.0075 106.421 70.4412 106.95 71.001C107.48 71.5659 107.853 72.2467 108.075 73.0486C108.292 73.8505 108.403 74.7432 108.403 75.7267L108.388 85.0469C107.747 85.1881 106.855 85.3495 105.71 85.5361C104.565 85.7227 103.183 85.8185 101.559 85.8135C100.535 85.8135 99.6072 85.7177 98.7801 85.5361C97.9479 85.3545 97.2318 85.057 96.6316 84.6434C96.0314 84.2299 95.5725 83.6953 95.2497 83.0346C94.932 82.3739 94.7706 81.5619 94.7706 80.5986C94.7706 79.6757 94.9572 78.8939 95.3304 78.2534C95.7036 77.6129 96.1978 77.1035 96.8232 76.7202C97.4436 76.342 98.1597 76.0646 98.9616 75.8982C99.7635 75.7267 100.596 75.646 101.458 75.646C102.038 75.646 102.558 75.6712 103.006 75.7216C103.455 75.7721 103.823 75.8376 104.106 75.9183V75.4947C104.106 74.7331 103.879 74.1229 103.42 73.6589C102.961 73.1949 102.159 72.9629 101.014 72.9629C100.253 72.9629 99.5013 73.0133 98.7599 73.1243C98.0185 73.2352 97.378 73.3865 96.8333 73.5883L96.2685 69.9772C96.5307 69.8965 96.8535 69.8108 97.2469 69.725C97.6403 69.6343 98.0639 69.5536 98.5229 69.488C98.9818 69.4174 99.471 69.3569 99.9804 69.3115C100.49 69.261 101.009 69.2358 101.529 69.2409L101.524 69.2459ZM101.862 82.3588C102.3 82.3588 102.724 82.3487 103.122 82.3285C103.521 82.3083 103.844 82.2781 104.086 82.2377V78.8385C103.909 78.7981 103.642 78.7578 103.279 78.7174C102.921 78.6771 102.588 78.6569 102.285 78.6569C101.862 78.6569 101.468 78.6821 101.095 78.7326C100.722 78.783 100.399 78.8788 100.117 79.015C99.8341 79.1562 99.6173 79.3428 99.4559 79.5849C99.2945 79.827 99.2138 80.1245 99.2138 80.4877C99.2138 81.1887 99.4458 81.6729 99.9199 81.9452C100.389 82.2175 101.034 82.3537 101.857 82.3537L101.862 82.3588Z" fill="#1A2DE2"/>
<path d="M118.752 85.8085C117.451 85.7833 116.392 85.642 115.58 85.3798C114.768 85.1175 114.127 84.7494 113.658 84.2803C113.189 83.8062 112.866 83.2363 112.7 82.5656C112.528 81.8948 112.448 81.1383 112.448 80.296L112.478 62.8862L116.962 62.17L116.931 79.3983C116.931 79.8018 116.962 80.1599 117.017 80.4826C117.072 80.8054 117.188 81.0727 117.36 81.2946C117.531 81.5165 117.774 81.6981 118.096 81.8393C118.414 81.9805 118.848 82.0713 119.387 82.1117L118.747 85.8085H118.752Z" fill="#1A2DE2"/>
<path d="M128.254 85.8286C126.953 85.8085 125.893 85.6622 125.081 85.3999C124.269 85.1377 123.629 84.7695 123.16 84.3005C122.691 83.8264 122.368 83.2565 122.202 82.5857C122.03 81.915 121.949 81.1584 121.949 80.3162L121.98 62.9064L126.463 62.1953L126.433 79.4235C126.433 79.827 126.463 80.1851 126.519 80.5078C126.579 80.8306 126.69 81.0979 126.862 81.3198C127.033 81.5417 127.275 81.7233 127.598 81.8645C127.916 82.0057 128.35 82.0965 128.889 82.1369L128.249 85.8337L128.254 85.8286Z" fill="#1A2DE2"/>
<path d="M130.7 77.744C130.7 76.342 130.922 75.1114 131.35 74.0624C131.784 73.0133 132.349 72.1358 133.055 71.4347C133.756 70.7337 134.563 70.2042 135.476 69.8461C136.389 69.488 137.327 69.3064 138.29 69.3115C140.534 69.3115 142.31 70.0024 143.611 71.3793C144.912 72.7561 145.558 74.7735 145.553 77.4414C145.553 77.7037 145.542 77.9861 145.522 78.2988C145.502 78.6115 145.482 78.8839 145.462 79.1259L135.299 79.1108C135.4 80.0338 135.829 80.765 136.59 81.3097C137.352 81.8494 138.371 82.1268 139.657 82.1268C140.479 82.1268 141.286 82.0562 142.078 81.9048C142.869 81.7535 143.515 81.572 144.019 81.3501L144.614 84.9914C144.372 85.1125 144.055 85.2285 143.651 85.3495C143.248 85.4705 142.804 85.5714 142.315 85.6622C141.825 85.753 141.296 85.8286 140.736 85.8841C140.176 85.9446 139.611 85.9698 139.052 85.9698C137.629 85.9698 136.389 85.753 135.34 85.3293C134.286 84.9057 133.418 84.3307 132.727 83.5944C132.036 82.8631 131.527 81.9956 131.199 80.992C130.871 79.9884 130.705 78.9091 130.71 77.744H130.7ZM141.225 76.0495C141.205 75.6712 141.14 75.298 141.034 74.9349C140.923 74.5717 140.751 74.254 140.524 73.9716C140.292 73.6891 140.005 73.4572 139.652 73.2806C139.299 73.1041 138.865 73.0083 138.346 73.0083C137.846 73.0083 137.412 73.094 137.054 73.2605C136.691 73.4319 136.394 73.6538 136.152 73.9363C135.91 74.2187 135.723 74.5415 135.592 74.9147C135.461 75.2879 135.365 75.6611 135.304 76.0394L141.225 76.0495Z" fill="#1A2DE2"/>
<path d="M148.881 65.8063L153.365 65.0901V69.7503L158.741 69.7603V73.4874L153.355 73.4773L153.345 79.0402C153.345 79.9833 153.506 80.7348 153.839 81.2946C154.167 81.8544 154.832 82.1368 155.836 82.1419C156.315 82.1419 156.814 82.0965 157.324 82.0108C157.833 81.92 158.302 81.7989 158.721 81.6375L159.346 85.1276C158.807 85.3495 158.201 85.5361 157.541 85.6975C156.88 85.8538 156.068 85.9345 155.105 85.9345C153.884 85.9345 152.871 85.7631 152.069 85.4352C151.267 85.1024 150.626 84.6434 150.147 84.0483C149.668 83.4582 149.33 82.737 149.143 81.8948C148.952 81.0525 148.861 80.1195 148.861 79.0957L148.886 65.8063H148.881Z" fill="#1A2DE2"/>
<path d="M23.6031 24.9547V85.8135H39.6664C39.6664 85.8135 56.4458 85.8135 56.4458 69.1803C56.4458 46.4396 26.5788 45.4007 25.6659 31.7179C25.3229 26.6039 23.6031 24.9547 23.6031 24.9547V24.9547Z" fill="url(#paint0_linear_181_2)"/>
<path d="M23.6031 24.9548C23.6031 24.9548 23.6032 18.2823 35.2685 18.2823C45.2141 18.2823 48.7193 26.8107 48.7193 31.143C48.7193 39.7925 39.1116 47.2819 33.468 55.3816C26.2661 65.7155 23.6082 79.9732 23.6082 85.8085V24.9548H23.6031Z" fill="url(#paint1_linear_181_2)"/>
</g>
<defs>
<linearGradient id="paint0_linear_181_2" x1="50.2424" y1="101.66" x2="16.27" y2="14.2123" gradientUnits="userSpaceOnUse">
<stop offset="0.12" stop-color="#3DE8F4"/>
<stop offset="0.16" stop-color="#38CFF1"/>
<stop offset="0.24" stop-color="#2C8FEB"/>
<stop offset="0.36" stop-color="#1A2DE2"/>
<stop offset="0.39" stop-color="#3331C9"/>
<stop offset="0.47" stop-color="#673B96"/>
<stop offset="0.55" stop-color="#94436A"/>
<stop offset="0.62" stop-color="#B94A46"/>
<stop offset="0.7" stop-color="#D64F2A"/>
<stop offset="0.77" stop-color="#EA5316"/>
<stop offset="0.85" stop-color="#F6550A"/>
<stop offset="0.92" stop-color="#FB5607"/>
</linearGradient>
<linearGradient id="paint1_linear_181_2" x1="20.1333" y1="80.3767" x2="36.3478" y2="28.1472" gradientUnits="userSpaceOnUse">
<stop stop-color="#FFBE0B"/>
<stop offset="1" stop-color="#FB5607"/>
</linearGradient>
<clipPath id="clip0_181_2">
<rect width="182.753" height="104" fill="white"/>
</clipPath>
</defs>
</svg>
