<svg width="113" height="48" viewBox="0 0 113 48" fill="none" xmlns="http://www.w3.org/2000/svg">
<path d="M47.2849 28.0051C46.9758 28.0669 46.6667 28.1199 46.3488 28.164C46.0397 28.2082 45.7571 28.2435 45.5009 28.2877C44.9622 28.3671 44.4853 28.4908 44.079 28.6674C43.6728 28.8441 43.3637 29.0737 43.1341 29.374C42.9133 29.6654 42.7985 30.0275 42.7985 30.4603C42.7985 31.0873 43.0281 31.573 43.4785 31.8998C43.9377 32.2266 44.5295 32.3855 45.236 32.3855C45.9425 32.3855 46.5166 32.2531 47.0377 31.9881C47.5587 31.7143 47.965 31.3434 48.2653 30.8842C48.5655 30.4249 48.7068 29.895 48.7068 29.3121V27.5458C48.5655 27.643 48.3624 27.7224 48.1063 27.8019C47.859 27.8726 47.5852 27.9432 47.2673 28.0051H47.2849Z" fill="#536FF2"/>
<path d="M106.27 0.00012207H7.5415C3.92936 0.00012207 0.997253 2.93223 0.997253 6.54437V41.4559C0.997253 45.068 3.92936 48.0001 7.5415 48.0001H106.27C109.883 48.0001 112.815 45.068 112.815 41.4559V6.54437C112.815 2.93223 109.883 0.00012207 106.27 0.00012207ZM35.7321 26.1683C35.7321 28.1201 35.317 29.7981 34.4957 31.2023C33.6744 32.5977 32.5351 33.6752 31.0867 34.4347C29.6383 35.1854 27.9868 35.5652 26.1145 35.5652C24.0302 35.5652 22.202 35.1059 20.63 34.1874C19.058 33.2601 17.8215 31.953 16.9384 30.2485C16.064 28.544 15.6225 26.5127 15.6225 24.1723C15.6225 22.3707 15.8786 20.7633 16.3996 19.3591C16.9295 17.946 17.6626 16.7449 18.6164 15.7558C19.5614 14.7755 20.6653 14.0248 21.9283 13.5125C23.1824 13.0003 24.5513 12.7442 26.0173 12.7442C27.2714 12.7442 28.446 12.9297 29.5323 13.3006C30.6186 13.6627 31.5813 14.1749 32.4203 14.8373C33.2681 15.4997 33.957 16.2945 34.4957 17.213C35.0344 18.1227 35.37 19.1295 35.529 20.2246H30.7599C30.6098 19.6947 30.3978 19.2266 30.124 18.8292C29.8502 18.4141 29.5146 18.0697 29.1172 17.7871C28.7286 17.4956 28.2782 17.2748 27.7748 17.1247C27.2714 16.9745 26.7238 16.8951 26.1145 16.8951C24.9752 16.8951 23.9772 17.1777 23.1205 17.7429C22.2639 18.3081 21.6015 19.1295 21.1246 20.2069C20.6477 21.2756 20.4092 22.5826 20.4092 24.137C20.4092 25.6914 20.6477 26.9985 21.1157 28.0848C21.5838 29.1711 22.255 30.0012 23.1117 30.5665C23.9684 31.1317 24.984 31.4143 26.1586 31.4143C27.2184 31.4143 28.1281 31.2288 28.8788 30.8491C29.6383 30.4693 30.2123 29.9306 30.6186 29.2329C31.0072 28.5705 31.2015 27.8021 31.2192 26.9102H26.4501V23.3775H35.7498V26.1771H35.7321V26.1683ZM53.3071 35.2472H48.9266V32.9333H48.7941C48.5292 33.4544 48.1671 33.9136 47.7167 34.3111C47.2663 34.6997 46.7275 35.0088 46.1005 35.2296C45.4734 35.4504 44.7404 35.5563 43.9191 35.5563C42.8593 35.5563 41.9054 35.3709 41.0753 34.9999C40.2451 34.6202 39.5827 34.0726 39.097 33.3396C38.6201 32.5977 38.3816 31.6792 38.3816 30.5841C38.3816 29.6568 38.5494 28.8796 38.8939 28.2526C39.2383 27.6255 39.6975 27.1133 40.2804 26.7335C40.8633 26.3538 41.5345 26.0623 42.2764 25.868C43.0271 25.6737 43.8131 25.5324 44.6433 25.4529C45.6147 25.3558 46.3919 25.2586 46.9836 25.1703C47.5754 25.0732 48.0081 24.9407 48.2731 24.7552C48.538 24.5786 48.6705 24.3048 48.6705 23.9515V23.8897C48.6705 23.2009 48.4497 22.671 48.0169 22.2912C47.593 21.9114 46.9836 21.726 46.1976 21.726C45.3675 21.726 44.7051 21.9114 44.2105 22.2824C43.7159 22.6445 43.3892 23.1037 43.2302 23.6513L38.9557 23.3068C39.1765 22.2912 39.6004 21.4169 40.2363 20.6838C40.8721 19.942 41.6935 19.3679 42.7003 18.9705C43.7159 18.5642 44.8817 18.3611 46.2153 18.3611C47.1426 18.3611 48.0258 18.4671 48.8736 18.6879C49.7303 18.9087 50.481 19.2443 51.1433 19.6947C51.8057 20.1539 52.3356 20.7368 52.7154 21.4522C53.0951 22.1587 53.2894 23.0066 53.2894 24.0045V35.2384H53.3071V35.2472ZM61.5117 35.2472H56.8928V13.0445H61.5117V35.2561V35.2472ZM79.9434 31.4849C79.281 32.7744 78.3272 33.7812 77.0996 34.4965C75.8808 35.2119 74.4236 35.574 72.7367 35.574C71.0499 35.574 69.5927 35.2119 68.3651 34.4965C67.1463 33.7723 66.2013 32.7655 65.5301 31.4849C64.8677 30.1867 64.5321 28.6941 64.5321 26.9808C64.5321 25.2675 64.8677 23.7573 65.5301 22.4678C66.1925 21.1696 67.1375 20.1716 68.3651 19.4562C69.5927 18.732 71.0499 18.3699 72.7367 18.3699C74.4236 18.3699 75.872 18.732 77.0996 19.4562C78.3272 20.1716 79.2721 21.1784 79.9434 22.4678C80.6057 23.7573 80.9413 25.2586 80.9413 26.9808C80.9413 28.703 80.6057 30.1867 79.9434 31.4849ZM92.4666 37.0489C92.1575 37.9497 91.7336 38.7269 91.1949 39.3893C90.665 40.0605 89.9938 40.5815 89.1901 40.9436C88.3776 41.3146 87.4061 41.5 86.258 41.5C85.6751 41.5 85.1187 41.4559 84.6065 41.3587C84.1031 41.2704 83.6791 41.1556 83.3524 41.0231L84.3945 37.57C84.9332 37.7378 85.4278 37.8261 85.8605 37.8437C86.3021 37.8614 86.6819 37.7554 86.9998 37.5435C87.3266 37.3227 87.5916 36.9606 87.7947 36.4395L88.0685 35.733L82.0894 18.5907H86.9468L90.4 30.8226H90.5767L94.0563 18.5907H98.9491L92.4755 37.0489H92.4666Z" fill="#536FF2"/>
<path d="M74.6803 22.5739C74.1681 22.1323 73.5234 21.9115 72.7639 21.9115C72.0044 21.9115 71.342 22.1323 70.8121 22.5739C70.291 23.0155 69.8936 23.616 69.6286 24.3755C69.3637 25.1351 69.2401 26.0006 69.2401 26.972C69.2401 27.9435 69.3725 28.809 69.6286 29.5685C69.8936 30.3281 70.291 30.9286 70.8121 31.3702C71.342 31.8029 71.9867 32.0237 72.7639 32.0237C73.5411 32.0237 74.1681 31.8029 74.6803 31.3702C75.1926 30.9286 75.5812 30.3281 75.8373 29.5685C76.1022 28.809 76.2347 27.9435 76.2347 26.972C76.2347 26.0006 76.1022 25.1351 75.8373 24.3755C75.5723 23.616 75.1926 23.0155 74.6803 22.5739Z" fill="#536FF2"/>
</svg>
